{
	"asset":{
		"generator":"Khronos glTF Blender I/O v4.1.63",
		"version":"2.0"
	},
	"scene":0,
	"scenes":[
		{
			"name":"Scene",
			"nodes":[
				0
			]
		}
	],
	"nodes":[
		{
			"mesh":0,
			"name":"Car_Sedan"
		}
	],
	"materials":[
		{
			"doubleSided":true,
			"name":"Car Material",
			"pbrMetallicRoughness":{
				"metallicFactor":0
			}
		}
	],
	"meshes":[
		{
			"name":"Cube.001",
			"primitives":[
				{
					"attributes":{
						"POSITION":0,
						"NORMAL":1,
						"TEXCOORD_0":2,
						"COLOR_0":3
					},
					"indices":4,
					"material":0
				}
			]
		}
	],
	"accessors":[
		{
			"bufferView":0,
			"componentType":5126,
			"count":1881,
			"max":[
				0.8894709944725037,
				1.2812834978103638,
				1.8501313924789429
			],
			"min":[
				-0.8894709944725037,
				-0.041545987129211426,
				-1.9207687377929688
			],
			"type":"VEC3"
		},
		{
			"bufferView":1,
			"componentType":5126,
			"count":1881,
			"type":"VEC3"
		},
		{
			"bufferView":2,
			"componentType":5126,
			"count":1881,
			"type":"VEC2"
		},
		{
			"bufferView":3,
			"componentType":5126,
			"count":1881,
			"type":"VEC3"
		},
		{
			"bufferView":4,
			"componentType":5123,
			"count":4944,
			"type":"SCALAR"
		}
	],
	"bufferViews":[
		{
			"buffer":0,
			"byteLength":22572,
			"byteOffset":0,
			"target":34962
		},
		{
			"buffer":0,
			"byteLength":22572,
			"byteOffset":22572,
			"target":34962
		},
		{
			"buffer":0,
			"byteLength":15048,
			"byteOffset":45144,
			"target":34962
		},
		{
			"buffer":0,
			"byteLength":22572,
			"byteOffset":60192,
			"target":34962
		},
		{
			"buffer":0,
			"byteLength":9888,
			"byteOffset":82764,
			"target":34963
		}
	],
	"buffers":[
		{
			"byteLength":92652,
			"uri":"blue.bin"
		}
	]
}
