{
	"asset":{
		"generator":"Khronos glTF Blender I/O v4.1.63",
		"version":"2.0"
	},
	"scene":0,
	"scenes":[
		{
			"name":"Scene",
			"nodes":[
				0
			]
		}
	],
	"nodes":[
		{
			"mesh":0,
			"name":"Car_Sedan"
		}
	],
	"materials":[
		{
			"doubleSided":true,
			"name":"Car_Material",
			"pbrMetallicRoughness":{
				"baseColorTexture":{
					"index":0
				},
				"metallicFactor":0,
				"roughnessFactor":0.5
			}
		}
	],
	"meshes":[
		{
			"name":"Cube.001",
			"primitives":[
				{
					"attributes":{
						"POSITION":0,
						"NORMAL":1,
						"TEXCOORD_0":2
					},
					"indices":3,
					"material":0
				}
			]
		}
	],
	"textures":[
		{
			"sampler":0,
			"source":0
		}
	],
	"images":[
		{
			"mimeType":"image/jpeg",
			"name":"Texture_Car_Sedan",
			"uri":"Texture_Car_Sedan.jpg"
		}
	],
	"accessors":[
		{
			"bufferView":0,
			"componentType":5126,
			"count":2001,
			"max":[
				0.8894709944725037,
				1.2812834978103638,
				1.8501313924789429
			],
			"min":[
				-0.8894709944725037,
				-0.041545987129211426,
				-1.9207687377929688
			],
			"type":"VEC3"
		},
		{
			"bufferView":1,
			"componentType":5126,
			"count":2001,
			"type":"VEC3"
		},
		{
			"bufferView":2,
			"componentType":5126,
			"count":2001,
			"type":"VEC2"
		},
		{
			"bufferView":3,
			"componentType":5123,
			"count":4944,
			"type":"SCALAR"
		}
	],
	"bufferViews":[
		{
			"buffer":0,
			"byteLength":24012,
			"byteOffset":0,
			"target":34962
		},
		{
			"buffer":0,
			"byteLength":24012,
			"byteOffset":24012,
			"target":34962
		},
		{
			"buffer":0,
			"byteLength":16008,
			"byteOffset":48024,
			"target":34962
		},
		{
			"buffer":0,
			"byteLength":9888,
			"byteOffset":64032,
			"target":34963
		}
	],
	"samplers":[
		{
			"magFilter":9729,
			"minFilter":9987
		}
	],
	"buffers":[
		{
			"byteLength":73920,
			"uri":"LP_Car.bin"
		}
	]
}
